<svg xmlns="http://www.w3.org/2000/svg" width="256" height="256" viewBox="0 0 256 256" fill="none"><rect width="256" height="256" fill="#00110B"/><g stroke="#4FFFB0" stroke-width="5" stroke-linecap="round" stroke-linejoin="round"><path d="M74 162 A34 34 0 0 1 142 162"/><path d="M142 162 L142 186 L74 186 L74 162"/><path d="M152 186 L152 76 L184 76 L184 186"/><path d="M46 174 A18 18 0 0 1 82 174"/><path d="M82 174 L82 188 L46 188 L46 174"/><path d="M194 174 A18 18 0 0 1 230 174"/><path d="M230 174 L230 188 L194 188 L194 174"/><path d="M108 186 L152 186"/><path d="M168 58 L168 76"/><path d="M160 58 L176 58"/><path d="M56 196 L234 196"/></g></svg>