<svg xmlns="http://www.w3.org/2000/svg" width="256" height="256" viewBox="0 0 256 256" fill="none"><rect width="256" height="256" fill="#00110B"/><g stroke="#4FFFB0" stroke-width="5" stroke-linecap="round" stroke-linejoin="round"><path d="M88 154 A28 28 0 0 1 144 154"/><path d="M144 154 L144 176 L88 176 L88 154"/><path d="M38 164 A22 22 0 0 1 82 164"/><path d="M82 164 L82 182 L38 182 L38 164"/><path d="M174 164 A22 22 0 0 1 218 164"/><path d="M218 164 L218 182 L174 182 L174 164"/><path d="M82 172 L88 172"/><path d="M144 172 L174 172"/><path d="M60 196 L196 196"/></g></svg>