<svg xmlns="http://www.w3.org/2000/svg" width="256" height="256" viewBox="0 0 256 256" fill="none"><rect width="256" height="256" fill="#00110B"/><g stroke="#4FFFB0" stroke-width="4" stroke-linecap="round" stroke-linejoin="round"><rect x="114" y="114" width="28" height="28"/><circle cx="128" cy="128" r="8"/><path d="M114 128 L82 128"/><path d="M142 128 L174 128"/><path d="M128 114 L128 82"/><path d="M128 142 L128 174"/><path d="M118 118 L96 96"/><path d="M138 118 L160 96"/><path d="M118 138 L96 160"/><path d="M138 138 L160 160"/><rect x="82" y="104" width="32" height="48"/><rect x="142" y="104" width="32" height="48"/><rect x="104" y="82" width="48" height="32"/><rect x="104" y="142" width="48" height="32"/><rect x="68" y="68" width="24" height="24"/><rect x="164" y="68" width="24" height="24"/><rect x="68" y="164" width="24" height="24"/><rect x="164" y="164" width="24" height="24"/></g></svg>