<svg xmlns="http://www.w3.org/2000/svg" width="256" height="256" viewBox="0 0 256 256" fill="none"><rect width="256" height="256" fill="#00110B"/><g stroke="#4FFFB0" stroke-width="4" stroke-linecap="round" stroke-linejoin="round"><rect x="68" y="68" width="120" height="120" rx="10"/><rect x="98" y="98" width="60" height="60" rx="4"/><path d="M68 108 L44 108 L44 148 L68 148"/><path d="M188 108 L212 108 L212 148 L188 148"/><path d="M108 68 L108 44 L148 44 L148 68"/><path d="M108 188 L108 212 L148 212 L148 188"/><circle cx="128" cy="128" r="12"/><path d="M68 88 L48 78"/><path d="M188 88 L208 78"/><path d="M68 168 L48 178"/><path d="M188 168 L208 178"/></g></svg>
