<svg xmlns="http://www.w3.org/2000/svg" width="256" height="256" viewBox="0 0 256 256" fill="none"><rect width="256" height="256" fill="#00110B"/><g stroke="#4FFFB0" stroke-width="5" stroke-linecap="round" stroke-linejoin="round"><path d="M70 154 A40 40 0 0 1 150 154"/><path d="M150 154 L150 182 L70 182 L70 154"/><path d="M34 170 A20 20 0 0 1 74 170"/><path d="M74 170 L74 186 L34 186 L34 170"/><path d="M182 170 A20 20 0 0 1 222 170"/><path d="M222 170 L222 186 L182 186 L182 170"/><path d="M74 176 L86 176"/><path d="M150 176 L182 176"/><path d="M84 120 L136 120"/><path d="M56 196 L202 196"/></g></svg>